<svg xmlns="http://www.w3.org/2000/svg" width="250" height="125">
  <defs>
    <clipPath id="a">
      <path d="M63.84 45.332h116.492V63H63.84Zm0 0"/>
    </clipPath>
    <clipPath id="b">
      <path d="M65.668 34.668H186.09v20.664H65.668Zm0 0"/>
    </clipPath>
    <clipPath id="c">
      <path d="M113.668 1.84h14v5.492h-14Zm0 0"/>
    </clipPath>
  </defs>
  <path d="M0 0h250v125H0z" style="fill:#fff;fill-opacity:1;stroke:none"/>
  <path d="M159.695 44.832c-8.543-1.516-16.777-4.465-25.398-5.652-17.922-2.711-37.227-.547-53.168 8.41 11.148-3.578 23.082-5.91 34.726-3.465 8.899 1.773 16.993 6.184 25.782 8.371 37.472 9.32 37.086-1.262 39.254-7.828-6.97 1.414-14.188 1.254-21.196.164M118.902 11.816c1.246-.785 2.504-1.511 3.77-2.261.18-.106.285-.227.273-.457-.023-.426-.011-.856-.02-1.282-.003-.336-.007-.34-.355-.34q-1.69 0-3.379.012c-.363 0-.363.008-.363.371q.002 1.822.004 3.649c.004.086-.027.18.07.308m0 0" style="stroke:none;fill-rule:nonzero;fill:#000;fill-opacity:1"/>
  <g clip-path="url(#a)">
    <path d="M148.531 56.953c-12.601-1.922-23.824-8.582-36.308-10.785-16.735-2.379-35.184 3.309-48.344 13.71 4.918.224 9.816.81 14.57 2.126.38.105.68.066 1.02-.098 3.031-1.488 6.199-2.62 9.457-3.511 11.375-3.125 23.402-2.961 34.972-1.024 18.172 2.684 39.165 10.816 56.309.664-10.492 1-21.262 1.047-31.676-1.082m0 0" style="stroke:none;fill-rule:nonzero;fill:#258730;fill-opacity:1"/>
  </g>
  <path d="M77.445 28.352c2.47-1.48 20.309-11.528 26.7-15.11 5.886 3.434 11.824 6.985 17.718 10.473 3.196 1.71 6.219 4.035 9.512 5.426 2.773-.395 5.54-.832 8.316-1.16.067-.008.164.039.204-.133a1956 1956 0 0 0-19.23-11.555c3.948-2.3 8.05-4.406 12.046-6.645.129-.074.223-.09.371.032 6.188 4.883 24.45 19.16 27.36 21.453.261.207.519.3.851.3 5.91-.03 11.992.169 17.816-.085-8.18-6.09-31.468-22.977-35.027-24.942a5545 5545 0 0 1-11.039-.433 1.4 1.4 0 0 0-.773.175c-4.743 2.7-9.543 5.29-14.286 7.989-.214.12-.363.125-.59-.016-1.636-.93-3.18-2.176-4.976-2.77-2.785-.59-5.563-1.23-8.32-1.953a.93.93 0 0 0-.766.11c-11.059 6.363-22.34 12.43-33.277 18.976 2.293 0 4.52.004 6.8.008.211 0 .403-.027.59-.14m0 0" style="stroke:none;fill-rule:nonzero;fill:#258730;fill-opacity:1"/>
  <g clip-path="url(#b)">
    <path d="M136.84 36.313c-24.809-4.774-52.754 1.14-71.121 18.937 4.676-3.387 10.105-5.484 15.41-7.66 15.941-8.957 35.246-11.121 53.168-8.41 8.621 1.183 16.855 4.136 25.398 5.652 7.004 1.09 14.227 1.246 21.196-.168 1.902-.738 3.668-1.71 5.226-3.043-16.496 4.543-33.144-2.21-49.277-5.309m0 0" style="stroke:none;fill-rule:nonzero;fill:#258730;fill-opacity:1"/>
  </g>
  <path d="M81.195 41.305c1.285-.5 2.54-1.16 3.844-1.649.184-.074.211-.183.211-.363-.016-2.969-.023-5.938-.04-8.906 0-.38.02-.352-.362-.352-1.168-.008-2.336-.008-3.504-.015-.156-.016-.203.066-.196.207.04 3.691-.039 7.406.047 11.078M148.14 36.922c.13.195.423.16.641.215 1.293.324 2.586.64 3.918.968.024-3.093-.023-6.187-.02-9.28.024-.266-.288-.173-.452-.188l-3.735-.012c-.422-.004-.414-.082-.414.418.047 2.613-.043 5.293.063 7.879M146.66 28.922c0-.29-.008-.293-.265-.293-1.36-.004-2.723-.004-4.083-.012-.183-.004-.25.04-.25.23-.011 2.192-.042 4.38.012 6.571.004.21.078.3.27.332 1.449.27 2.832.523 4.316.875zM89.984 30.04q-1.612-.006-3.23-.005c-.469 0-.442-.086-.438.426.024 2.879.012 5.754.063 8.633 1.234-.45 2.43-.88 3.64-1.254.313-.098.317-.098.317-.414q-.005-3.522-.016-7.043c0-.344-.004-.344-.336-.344M106.988 28.871c1.582.043 3.164.02 4.746-.012.297-.004.301-.007.305-.293 0-1.18 0-2.363-.004-3.539 0-.297-.004-.304-.297-.304h-4.668c-.402 0-.375-.028-.375.386q-.004 1.731.004 3.461c0 .297.004.293.29.301M100.52 28.902c.816-.011 1.632-.004 2.359-.004a50 50 0 0 1 2.496-.03c.29.003.293 0 .293-.294v-3.531c0-.313-.004-.316-.316-.316-1.13 0-2.254.003-3.38 0-.48 0-.96 0-1.437-.012-.152 0-.242.015-.242.203q.007 1.885-.004 3.77c0 .171.066.214.23.214m0 0" style="stroke:none;fill-rule:nonzero;fill:#258730;fill-opacity:1"/>
  <g clip-path="url(#c)">
    <path d="M115.902 6.672c1.508-1.156 3.063-2.262 4.567-3.426.183-.14.289-.137.46-.012.75.551 1.497 1.114 2.231 1.692q1.161.915 2.328 1.816c.196.153.395.317.637.36.473.027.809-.036 1.336-.012-2.293-1.79-4.516-3.516-6.742-5.25-2.278 1.695-4.524 3.37-6.77 5.043.012.031.024.054.031.086.653-.063 1.391.183 1.922-.297m0 0" style="stroke:none;fill-rule:nonzero;fill:#258730;fill-opacity:1"/>
  </g>
  <path d="M105.68 30.281c.004-.187-.028-.277-.25-.273q-2.469.001-4.938-.016c-.164-.004-.195.059-.195.2.008.574.004 1.14.008 1.714 0 .266.004.27.28.27.817.004 1.634 0 2.45 0v.008c3.313-.149 2.55.73 2.645-1.903M111.785 32.18c.176.004.262-.035.254-.235-.012-.57-.008-1.14-.004-1.71.004-.169-.055-.235-.222-.227-1.594.004-3.192-.004-4.786 0-.328 0-.332.004-.332.344q.001.738.008 1.476c.004.344.008.348.336.348h2.336v.004c.805 0 1.61-.004 2.41 0M128.398 31.258c-3.148.328-6.273.594-9.421.96 3.062.594 6.168.512 9.265.712.102.008.192 0 .184-.13-.043-.5-.024-1.007-.028-1.542M65.637 55.266c.011-.02.027-.02.043-.008-.016-.016-.032-.04-.043.008M65.68 55.258c.007.004.011.008.02.008q.005-.011.019-.016-.012.005-.024.016c-.007-.008-.011-.008-.015-.008m0 0" style="stroke:none;fill-rule:nonzero;fill:#258730;fill-opacity:1"/>
  <path d="M26.773 102.875q-8.044 0-12.363-2.684-4.318-2.683-5.05-9.316l10.343-.828c.16 1.101.48 2.137.953 3.098.469.957 1.203 1.738 2.192 2.343q1.488.903 4.078.903a16 16 0 0 0 2.73-.246q1.414-.247 2.196-.88 1.218-1.803 1.218-4.046q0-1.466-.586-2.39-.585-.926-2.101-1.466c-1.008-.355-2.469-.636-4.383-.832q-5.858-.239-9.297-1.656-3.44-1.418-4.93-3.809-1.488-2.39-1.488-5.511q0-3.751 2.074-6.22 2.076-2.46 5.633-3.655 3.561-1.196 8.102-1.196 7.85 0 11.707 3.27 3.856 3.266 4.687 9.8l-9.515.684q-.34-2.147-.953-3.707a4.72 4.72 0 0 0-2.047-2.414q-1.438-.85-4.27-.851c-.683 0-1.437.054-2.265.171q-1.249.165-2.028.657a9.2 9.2 0 0 0-1.125 2q-.438 1.072-.437 2.39 0 2.39 1.511 3.391c1.008.664 2.797 1.18 5.368 1.535q4.881.248 7.976 1.05 3.094.804 4.781 2.095 1.688 1.293 2.344 3.074.659 1.782.66 4.027 0 3.608-2.027 6.125c-1.352 1.672-3.203 2.942-5.563 3.801q-3.534 1.291-8.125 1.293M89.07 102.29h-9.953a68 68 0 0 0-.898-4.145q-.515-2.052-1.047-4.145H64.484a277 277 0 0 1-2.246 8.29h-9.8q1.072-3.952 2.437-8.806c.906-3.238 1.844-6.554 2.8-9.949q1.442-5.097 2.735-9.879 1.292-4.78 2.219-8.59H78.78a978 978 0 0 0 2.239 8.465 780 780 0 0 0 2.707 9.758q1.442 5.05 2.808 9.93 1.364 4.875 2.535 9.07M65.852 88.726h9.855q-1.319-4.489-2.613-9.047a136 136 0 0 1-2.266-9.196h-.39q-1.173 4.583-2.344 9.27-1.171 4.682-2.242 8.973M100.29 102.29q.197-6.095.343-12.61.145-6.515.144-12.907q0-1.56-.023-3.78c-.02-1.477-.035-2.942-.055-4.391a469 469 0 0 1-.02-3.536h14.391l7.317 28.2h.734l7.274-28.2h14.39c0 1.954-.012 3.903-.027 5.856q-.029 2.926-.028 5.851 0 6.392.122 12.907.124 6.515.324 12.61h-8.688v-7.83q0-4.168-.093-8.468-.002-3.019-.028-6.582-.029-3.564-.074-6.488h-.633l-8.047 29.367h-9.71l-8.098-29.367h-.637l-.145 13.125q.001 4.29-.027 8.437c-.016 2.762-.023 5.368-.023 7.805ZM193.027 102.29h-9.953a72 72 0 0 0-.902-4.145c-.34-1.368-.692-2.75-1.047-4.145h-12.688a277 277 0 0 1-2.246 8.29h-9.8q1.071-3.952 2.437-8.806 1.365-4.857 2.8-9.949 1.445-5.097 2.735-9.879 1.295-4.78 2.219-8.59h16.152a978 978 0 0 0 2.239 8.465 720 720 0 0 0 2.71 9.758q1.441 5.05 2.805 9.93 1.366 4.875 2.54 9.07M169.81 88.726h9.851q-1.319-4.489-2.613-9.047a136 136 0 0 1-2.266-9.196h-.39q-1.173 4.583-2.344 9.27-1.166 4.682-2.238 8.973M204.29 102.29q.05-2.827.073-6.02.025-3.2.051-7.125.029-3.926.027-8.954c0-2.343-.02-4.832-.05-7.464a511 511 0 0 0-.149-7.66h13.028l10.683 22a145 145 0 0 0 1.414 3.496q.736 1.727 1.074 2.945h.684a83 83 0 0 1-.34-3.145 36 36 0 0 1-.144-3.199c0-1.719-.012-3.598-.028-5.629q-.029-3.052-.074-6.097a863 863 0 0 1-.07-5.762q-.029-2.706-.074-4.61h8.828q-.146 9.123-.145 18.2c0 5.949.047 12.293.145 19.023H226.25l-9.855-19.516a100 100 0 0 1-1.98-5.144 91 91 0 0 1-1.29-3.973h-.684q.046.436.121 1.438.072.998.172 2.172c.063.78.114 1.504.145 2.171q.047.998.047 1.391 0 6.001.027 11.317.024 5.317.07 10.144Zm0 0" style="stroke:none;fill-rule:nonzero;fill:#000;fill-opacity:1"/>
  <path d="M67.621 116.074v2.5c0 .344-.125.602-.371.766a1.37 1.37 0 0 1-1.566 0c-.23-.164-.344-.414-.344-.742V107.98q0-.45.332-.738.34-.293.82-.293h4.047c1.094 0 2.031.2 2.813.59q1.17.584 1.785 1.625.614 1.043.613 2.45c0 1.335-.46 2.413-1.39 3.234-.922.82-2.22 1.226-3.883 1.226Zm0-7.16v5.2h2.856q1.464 0 2.238-.684c.515-.457.777-1.063.777-1.817 0-.82-.258-1.476-.765-1.965-.508-.488-1.235-.734-2.172-.734ZM92.824 113.277c0 1.297-.27 2.434-.8 3.414a5.7 5.7 0 0 1-2.25 2.282q-1.453.81-3.391.812-1.945-.002-3.414-.812a5.77 5.77 0 0 1-2.281-2.282q-.812-1.47-.813-3.414.001-1.963.813-3.43a5.7 5.7 0 0 1 2.28-2.28q1.47-.814 3.415-.813 1.939 0 3.39.812 1.448.81 2.25 2.282.8 1.464.801 3.43m-6.441 4.485q1.247 0 2.172-.563a3.86 3.86 0 0 0 1.437-1.578q.516-1.014.516-2.344 0-1.346-.516-2.359a3.86 3.86 0 0 0-1.437-1.57q-.925-.57-2.172-.57-1.253 0-2.195.57a3.8 3.8 0 0 0-1.458 1.57c-.343.676-.515 1.46-.515 2.36q0 1.329.515 2.343a3.8 3.8 0 0 0 1.457 1.578q.944.563 2.196.563M108.21 117.645c.306.316.454.62.438.921a1 1 0 0 1-.335.735 1.13 1.13 0 0 1-.747.297c-.28.004-.55-.121-.8-.387l-3.547-3.793h-2.996v3.137q-.001.497-.371.765a1.3 1.3 0 0 1-.782.266 1.37 1.37 0 0 1-.797-.254c-.234-.176-.351-.426-.351-.758V107.98q0-.45.328-.738.328-.293.82-.293h4.422c1.192 0 2.184.196 2.977.578q1.191.575 1.785 1.547c.394.649.594 1.367.594 2.164q-.001 1.382-.746 2.426-.746 1.042-2.27 1.48Zm-7.987-4.149h3.293q1.583 0 2.316-.66.733-.666.7-1.578-.024-.995-.821-1.645-.79-.656-2.195-.656h-3.293ZM122.633 106.95q.574.002.87.32.296.317.298.71c0 .254-.102.489-.297.7q-.298.316-.871.316h-3.692l.02 9.54q0 .532-.387.796-.387.253-.785.254a1.35 1.35 0 0 1-.781-.254q-.363-.263-.363-.797v-9.539h-3.672q-.575 0-.84-.316a1.056 1.056 0 0 1 0-1.41q.265-.318.84-.32ZM133.078 106.754q.317 0 .594.129.282.13.418.426l5.613 11.007q.264.436.14.766a.95.95 0 0 1-.456.516 1.46 1.46 0 0 1-.715.187q-.275 0-.567-.152a1.02 1.02 0 0 1-.44-.422l-1.392-2.762h-6.386l-1.387 2.762a.82.82 0 0 1-.43.441 1.4 1.4 0 0 1-.562.133q-.34 0-.668-.187a1.1 1.1 0 0 1-.469-.516q-.15-.328.027-.703l5.649-11.07c.11-.223.242-.375.406-.446q.251-.11.625-.11m0 3.351-2.219 4.422h4.446ZM149.738 106.95c.477 0 .992.046 1.555.132q.843.13 1.598.488.757.357 1.238 1.047c.324.461.484 1.067.484 1.809q0 .633-.304 1.312-.31.669-.86.985 1.032.417 1.535 1.203.504.782.504 1.832c0 .77-.156 1.398-.468 1.894q-.465.75-1.239 1.172a5.6 5.6 0 0 1-1.715.594q-.942.169-1.914.168h-4.84q-.474 0-.824-.309a.97.97 0 0 1-.343-.742v-10.531a.95.95 0 0 1 .343-.75q.351-.305.825-.305Zm0 1.964h-3.297v3.078h3.356q1.008 0 1.77-.363.766-.37.765-1.203 0-.656-.445-.977a2.6 2.6 0 0 0-1.047-.426 6 6 0 0 0-1.102-.109m.992 5.043h-4.289v3.664h3.711c.477 0 .95-.043 1.41-.133q.69-.14 1.141-.547c.297-.273.45-.664.45-1.183q-.001-.91-.712-1.356-.703-.445-1.71-.445M161.48 119.586q-.637.002-.917-.277-.277-.282-.278-.797v-10.547q-.001-.515.367-.766.37-.248.805-.25c.277 0 .54.086.781.25q.37.251.371.766v9.637h6.504q.573 0 .883.316c.203.215.305.437.305.68q0 .374-.305.68-.31.309-.883.308ZM183.469 117.602q.517 0 .804.328c.188.218.286.453.286.703q-.001.357-.266.656-.266.299-.824.297h-7.875q-.591.001-.953-.344a1.14 1.14 0 0 1-.352-.844v-10.277c0-.312.117-.59.352-.82q.362-.352.953-.352h7.875c.36 0 .62.098.793.293a.96.96 0 0 1 .261.66q-.001.365-.273.68-.264.312-.781.313h-6.922v3.472h6.562q.516 0 .774.309.258.305.258.68 0 .362-.258.656-.258.298-.774.297h-6.562v3.293Zm0 0" style="stroke:none;fill-rule:nonzero;fill:#258730;fill-opacity:1"/>
  <path d="M-.003 15h96.735" style="fill:none;stroke-width:30;stroke-linecap:butt;stroke-linejoin:miter;stroke:#000;stroke-opacity:1;stroke-miterlimit:4" transform="matrix(.25 0 0 .25 215.883 109.25)"/>
  <path d="M.003 15h97.458" style="fill:none;stroke-width:30;stroke-linecap:butt;stroke-linejoin:miter;stroke:#000;stroke-opacity:1;stroke-miterlimit:4" transform="rotate(1.18 -5293.818 533.891)scale(.25)"/>
</svg>